<?xml version="1.0" encoding="UTF-8"?>
<svg id="Layer_2" data-name="Layer 2" xmlns="http://www.w3.org/2000/svg" viewBox="0 0 283.85 40.2">
  <defs>
    <style>
      .cls-1 {
        fill: #597b7c;
      }
    </style>
  </defs>
  <g id="Layer_1-2" data-name="Layer 1">
    <path class="cls-1" d="m96.73,6.51c3.25,0,4.79,2.33,5.59,6.09l8.67-1.6c-1.11-6.7-6.21-11-13.96-11-11.81,0-17.03,8.84-17.03,19.91,0,11.62,4.98,20.29,17.34,20.29,4.98,0,9.83-1.6,12.54-3.45l.49-6.7c-3.01,1.91-7.44,3.57-11.25,3.57-7.19,0-10.02-5.6-10.02-14.21,0-7.62,2.52-12.91,7.63-12.91M35.25.67h-13L0,39.59h8.43L27.1,6.91v15.76h-1.27c-4.42,0-6.65,4.57-7.01,5.99h8.28v10.92h8.14v-10.92h6.57v-5.99h-6.57V.67Zm103.7,24.53c0,2.52-.25,4.73-1.53,6.33-1.05,1.23-2.71,2.03-5.24,2.03s-4.24-.8-5.28-2.16c-1.04-1.36-1.42-3.2-1.42-6.27V.67h-8.6v24.84c0,4.98.8,7.99,3.13,10.58,2.52,2.76,6.58,4.12,11.99,4.12,5.96,0,10.08-1.66,12.54-4.79,2.03-2.59,2.76-5.84,2.76-10.21V.67h-8.36v24.53ZM62,6.51c3.26,0,4.8,2.33,5.6,6.09l8.67-1.6c-1.11-6.7-6.21-11-13.96-11-11.8,0-17.03,8.84-17.03,19.91,0,11.62,4.98,20.29,17.34,20.29,4.98,0,9.84-1.6,12.54-3.45l.5-6.7c-3.02,1.91-7.44,3.57-11.26,3.57-7.2,0-10.01-5.6-10.01-14.21,0-7.62,2.52-12.91,7.62-12.91m149.63,16.29h11.91v-5.96h-11.91V6.7h15.39V.67h-23.93v38.92h20.39c3.17,0,4.87-1.81,5.34-6.09h-17.19v-10.7Zm66.99,6.22c-2.88,0-5.22,2.34-5.22,5.23s2.34,5.23,5.22,5.23,5.23-2.34,5.23-5.23-2.34-5.23-5.23-5.23M185.45,4.18c-.58,1.29-8.55,19.85-8.55,19.85-.67,1.53-1.4,3.96-1.47,4.82h-.07c-.12-.92-.91-3.24-1.63-4.82,0,0-8.37-18.27-9.1-19.87-.73-1.6-1.85-3.2-3.57-3.2h-5.77v38.63h7.14V14.27c.31,1.83.92,3.78,1.59,5.24l9.1,20.08h4.09l8.73-20.14c.55-1.28,1.46-3.85,1.65-5.13v25.27h7.2V.96h-5.86c-1.85,0-2.88,1.93-3.47,3.22m76.95-.37c-3.44-2.28-8.12-3.14-14.39-3.14h-16.25v6.03s16.41,0,16.41,0h0c3.48.03,6.14.57,7.94,1.91,2.65,1.97,3.69,5.53,3.69,11.25s-.85,9.78-3.87,11.93c-1.67,1.16-4.12,1.78-7.14,1.78h-3.93v-16.19c0-7.44-8.55-8.1-8.55-8.1v30.31h11.93c4.3,0,7.99-.55,11.06-1.79,6.15-2.52,9.59-7.93,9.59-17.52,0-8.3-2.08-13.52-6.51-16.47"/>
  </g>
</svg>