<?xml version="1.0" encoding="UTF-8"?>
<svg id="Layer_2" data-name="Layer 2" xmlns="http://www.w3.org/2000/svg" viewBox="0 0 277.33 39.28">
  <defs>
    <style>
      .cls-1 {
        fill: #c4d93d;
      }
    </style>
  </defs>
  <g id="Layer_1-2" data-name="Layer 1">
    <path class="cls-1" d="m94.5,6.36c3.18,0,4.68,2.28,5.46,5.95l8.47-1.56c-1.08-6.55-6.07-10.75-13.64-10.75-11.54,0-16.64,8.64-16.64,19.46,0,11.35,4.87,19.82,16.94,19.82,4.86,0,9.61-1.56,12.25-3.37l.48-6.55c-2.95,1.87-7.27,3.49-10.99,3.49-7.03,0-9.79-5.47-9.79-13.88,0-7.45,2.46-12.61,7.45-12.61M34.44.66h-12.7L0,38.68h8.23L26.48,6.75v15.4h-1.24c-4.32,0-6.5,4.47-6.85,5.85h8.09v10.67h7.95v-10.67h6.42v-5.85h-6.42V.66Zm101.32,23.97c0,2.46-.24,4.62-1.5,6.18-1.03,1.2-2.65,1.98-5.12,1.98s-4.14-.78-5.16-2.11c-1.02-1.32-1.38-3.12-1.38-6.13V.66h-8.41v24.27c0,4.87.78,7.81,3.06,10.33,2.46,2.7,6.43,4.03,11.72,4.03,5.82,0,9.85-1.62,12.26-4.68,1.98-2.53,2.7-5.71,2.7-9.97V.66h-8.17v23.97ZM60.58,6.36c3.19,0,4.69,2.28,5.47,5.95l8.47-1.56c-1.08-6.55-6.06-10.75-13.64-10.75-11.53,0-16.64,8.64-16.64,19.46,0,11.35,4.87,19.82,16.94,19.82,4.87,0,9.61-1.56,12.25-3.37l.49-6.55c-2.95,1.87-7.27,3.49-11,3.49-7.03,0-9.78-5.47-9.78-13.88,0-7.45,2.46-12.61,7.44-12.61m146.19,15.92h11.64v-5.82h-11.64V6.54h15.04V.65h-23.38v38.02h19.92c3.1,0,4.76-1.77,5.21-5.95h-16.79v-10.45Zm65.45,6.08c-2.82,0-5.1,2.29-5.1,5.11s2.29,5.11,5.1,5.11,5.11-2.29,5.11-5.11-2.28-5.11-5.11-5.11M181.19,4.08c-.57,1.26-8.35,19.39-8.35,19.39-.66,1.49-1.37,3.87-1.43,4.71h-.06c-.11-.9-.89-3.16-1.6-4.71,0,0-8.18-17.85-8.89-19.42-.72-1.56-1.81-3.13-3.49-3.13h-5.64v37.74h6.98V13.94c.3,1.79.9,3.69,1.55,5.12l8.89,19.62h3.99l8.53-19.68c.54-1.25,1.43-3.76,1.61-5.01v24.69h7.03V.93h-5.72c-1.81,0-2.82,1.88-3.39,3.15m75.18-.36c-3.36-2.22-7.94-3.06-14.06-3.06h-15.87v5.89s16.03,0,16.03,0h0c3.4.02,6,.56,7.76,1.86,2.58,1.92,3.61,5.4,3.61,10.99s-.83,9.55-3.78,11.66c-1.63,1.13-4.03,1.74-6.98,1.74h-3.84v-15.82c0-7.27-8.35-7.91-8.35-7.91v29.62h11.66c4.2,0,7.81-.54,10.81-1.74,6.01-2.46,9.37-7.75,9.37-17.12,0-8.11-2.03-13.21-6.36-16.1"/>
  </g>
</svg>